<mxfile host="app.diagrams.net" modified="2022-12-22T22:21:04.051Z" agent="5.0 (Macintosh; Intel Mac OS X 10_15_7) AppleWebKit/537.36 (KHTML, like Gecko) Chrome/108.0.0.0 Safari/537.36" version="20.7.4" etag="hBb6fFiCvXR7du_PzuXC" type="github">
  <diagram id="vWChVwNTtLTxvidAXJDJ" name="Page-1">
    <mxGraphModel dx="1434" dy="803" grid="1" gridSize="10" guides="1" tooltips="1" connect="1" arrows="1" fold="1" page="1" pageScale="1" pageWidth="850" pageHeight="1100" math="0" shadow="0">
      <root>
        <mxCell id="0" />
        <mxCell id="1" parent="0" />
        <mxCell id="kQz_cF7k1lwV04raujkt-1" value="&lt;font style=&quot;font-size: 17px;&quot;&gt;Request Parameters&lt;/font&gt;" style="swimlane;whiteSpace=wrap;html=1;strokeWidth=3;" vertex="1" parent="1">
          <mxGeometry x="80" y="120" width="275" height="200" as="geometry">
            <mxRectangle x="135" y="120" width="200" height="30" as="alternateBounds" />
          </mxGeometry>
        </mxCell>
        <mxCell id="kQz_cF7k1lwV04raujkt-3" value="&lt;ul style=&quot;font-size: 17px;&quot;&gt;&lt;li style=&quot;&quot;&gt;&lt;span style=&quot;&quot;&gt;oauth_consumer_key&lt;/span&gt;&lt;/li&gt;&lt;li style=&quot;&quot;&gt;&lt;span style=&quot;&quot;&gt;oauth_nonce&lt;/span&gt;&lt;/li&gt;&lt;li style=&quot;&quot;&gt;&lt;span style=&quot;&quot;&gt;oauth_signature_method&lt;/span&gt;&lt;/li&gt;&lt;li style=&quot;&quot;&gt;&lt;span style=&quot;&quot;&gt;oauth_signature&lt;/span&gt;&lt;/li&gt;&lt;li style=&quot;&quot;&gt;&lt;span style=&quot;&quot;&gt;oauth_timestamp&lt;/span&gt;&lt;/li&gt;&lt;li style=&quot;&quot;&gt;&lt;span style=&quot;&quot;&gt;oauth_callback&lt;/span&gt;&lt;/li&gt;&lt;li style=&quot;&quot;&gt;oauth_version&lt;/li&gt;&lt;/ul&gt;" style="text;html=1;align=left;verticalAlign=middle;resizable=0;points=[];autosize=1;strokeColor=none;fillColor=none;fontSize=14;" vertex="1" parent="kQz_cF7k1lwV04raujkt-1">
          <mxGeometry x="7" y="16" width="250" height="190" as="geometry" />
        </mxCell>
        <mxCell id="kQz_cF7k1lwV04raujkt-15" value="&lt;font style=&quot;font-size: 17px;&quot;&gt;Response Parameters&lt;/font&gt;" style="swimlane;whiteSpace=wrap;html=1;strokeWidth=3;" vertex="1" parent="1">
          <mxGeometry x="450" y="120" width="260" height="200" as="geometry">
            <mxRectangle x="135" y="120" width="200" height="30" as="alternateBounds" />
          </mxGeometry>
        </mxCell>
        <mxCell id="kQz_cF7k1lwV04raujkt-16" value="&lt;ul style=&quot;font-size: 17px;&quot;&gt;&lt;li style=&quot;&quot;&gt;&lt;span style=&quot;&quot;&gt;oauth_token&lt;/span&gt;&lt;/li&gt;&lt;li style=&quot;&quot;&gt;&lt;span style=&quot;&quot;&gt;oauth_token_secret&lt;/span&gt;&lt;/li&gt;&lt;li style=&quot;&quot;&gt;&lt;span style=&quot;&quot;&gt;oauth_callback_confirmed&lt;/span&gt;&lt;/li&gt;&lt;/ul&gt;" style="text;html=1;align=left;verticalAlign=middle;resizable=0;points=[];autosize=1;strokeColor=none;fillColor=none;fontSize=14;" vertex="1" parent="kQz_cF7k1lwV04raujkt-15">
          <mxGeometry x="5" y="20" width="260" height="110" as="geometry" />
        </mxCell>
      </root>
    </mxGraphModel>
  </diagram>
</mxfile>
